# xmcd
#
# Track frame offsets:
#	150
#	19306
#	37579
#	49725
#	66102
#	78733
#	95565
#	108536
#	114132
#	130360
#	155833
#	172506
#	194013
#	214683
#	235546
#	257340
#	277600
#	295541
#	309206
#
# Disc length: 4354 seconds
#
# Revision: 0
# Processed by: cddbd v1.5.1PL0 Copyright (c) Steve Scherf et al.
# Submitted via: dBpowerAMP V4.0
#
DISCID=f1110013
DTITLE=Rory Gallagher - On French Tv
DYEAR=1900
DGENRE=
TTITLE0=01 Out On The Western Plain
TTITLE1=02 Handy Man
TTITLE2=03 Improvisations Sur Film
TTITLE3=04 Nothing But The Devil
TTITLE4=05 Banker's Blues
TTITLE5=06 Too Much Alcohol
TTITLE6=07 Don't Know Where I'm Going
TTITLE7=08 Who's That Coming
TTITLE8=09 Nothing But The Devil
TTITLE9=10 Too Much Alcohol
TTITLE10=11 Ride On The Red
TTITLE11=12 Barley And Grape/Pistol Slapper Blues
TTITLE12=13 Out On The Western Plain
TTITLE13=14 Banker's Blues
TTITLE14=15 Rag Mania
TTITLE15=16 Out On the Western Plain
TTITLE16=17 As Acrow Flics
TTITLE17=18 Unmilitary Two step
TTITLE18=19 Pistol Slapper Blues
EXTD=Rory Gallagher-On French TV
EXTT0=
EXTT1=
EXTT2=
EXTT3=
EXTT4=
EXTT5=
EXTT6=
EXTT7=
EXTT8=
EXTT9=
EXTT10=
EXTT11=
EXTT12=
EXTT13=
EXTT14=
EXTT15=
EXTT16=
EXTT17=
EXTT18=
PLAYORDER=
